<svg id="Ebene_1" data-name="Ebene 1" xmlns="http://www.w3.org/2000/svg" viewBox="0 0 13.31 8.69"><path d="M.51,8.76,1,8.11a2.62,2.62,0,0,0,1.72.69c.77,0,1.15-.41,1.15-.9S3.18,7,2.53,6.79C1.72,6.49.79,6.09.79,5.11s.75-1.66,2-1.66a3,3,0,0,1,1.81.66l-.47.63a2.19,2.19,0,0,0-1.33-.52c-.74,0-1.08.39-1.08.84s.64.76,1.3,1c.84.32,1.78.66,1.78,1.77,0,.94-.76,1.73-2.13,1.73A3.51,3.51,0,0,1,.51,8.76Z" transform="translate(-0.51 -0.88)" style="fill:#130654"/><path d="M6,1.76a.64.64,0,0,1,.68-.64.64.64,0,0,1,.68.64A.68.68,0,0,1,6,1.76ZM6.19,3.6h1V9.43h-1Z" transform="translate(-0.51 -0.88)" style="fill:#130654"/><path d="M8.72,6.52c0-1.89,1.2-3.07,2.53-3.07a2.4,2.4,0,0,1,1.63.68l0-1V.88h1V9.43H13l-.08-.69h0a2.57,2.57,0,0,1-1.76.83C9.67,9.57,8.72,8.46,8.72,6.52Zm4.12,1.42V4.89a2.08,2.08,0,0,0-1.42-.61c-.94,0-1.68.9-1.68,2.23s.58,2.23,1.6,2.23A2,2,0,0,0,12.84,7.94Z" transform="translate(-0.51 -0.88)" style="fill:#130654"/></svg>
